<svg width="28" height="28" viewBox="0 0 28 28" fill="none" xmlns="http://www.w3.org/2000/svg">
<mask id="mask0_33_1166" style="mask-type:alpha" maskUnits="userSpaceOnUse" x="0" y="0" width="28" height="28">
<rect width="28" height="28" fill="#D9D9D9"/>
</mask>
<g mask="url(#mask0_33_1166)">
<path d="M10.7918 25.6663L10.3251 21.933C10.0724 21.8358 9.83417 21.7191 9.61056 21.583C9.38695 21.4469 9.1682 21.3011 8.95431 21.1455L5.48348 22.6038L2.27515 17.0622L5.27931 14.7872C5.25987 14.6511 5.25015 14.5198 5.25015 14.3934V13.6059C5.25015 13.4795 5.25987 13.3483 5.27931 13.2122L2.27515 10.9372L5.48348 5.39551L8.95431 6.85384C9.1682 6.69829 9.39181 6.55245 9.62515 6.41634C9.85848 6.28023 10.0918 6.16356 10.3251 6.06634L10.7918 2.33301H17.2085L17.6751 6.06634C17.9279 6.16356 18.1661 6.28023 18.3897 6.41634C18.6133 6.55245 18.8321 6.69829 19.046 6.85384L22.5168 5.39551L25.7251 10.9372L22.721 13.2122C22.7404 13.3483 22.7501 13.4795 22.7501 13.6059V14.3934C22.7501 14.5198 22.7307 14.6511 22.6918 14.7872L25.696 17.0622L22.4876 22.6038L19.046 21.1455C18.8321 21.3011 18.6085 21.4469 18.3751 21.583C18.1418 21.7191 17.9085 21.8358 17.6751 21.933L17.2085 25.6663H10.7918ZM14.0585 18.083C15.1863 18.083 16.1488 17.6844 16.946 16.8872C17.7432 16.09 18.1418 15.1275 18.1418 13.9997C18.1418 12.8719 17.7432 11.9094 16.946 11.1122C16.1488 10.315 15.1863 9.91634 14.0585 9.91634C12.9113 9.91634 11.9439 10.315 11.1564 11.1122C10.3689 11.9094 9.97515 12.8719 9.97515 13.9997C9.97515 15.1275 10.3689 16.09 11.1564 16.8872C11.9439 17.6844 12.9113 18.083 14.0585 18.083ZM14.0585 15.7497C13.5724 15.7497 13.1592 15.5795 12.8189 15.2393C12.4786 14.899 12.3085 14.4858 12.3085 13.9997C12.3085 13.5136 12.4786 13.1004 12.8189 12.7601C13.1592 12.4198 13.5724 12.2497 14.0585 12.2497C14.5446 12.2497 14.9578 12.4198 15.2981 12.7601C15.6383 13.1004 15.8085 13.5136 15.8085 13.9997C15.8085 14.4858 15.6383 14.899 15.2981 15.2393C14.9578 15.5795 14.5446 15.7497 14.0585 15.7497ZM12.8335 23.333H15.1376L15.546 20.2413C16.1488 20.0858 16.7078 19.8573 17.2231 19.5559C17.7383 19.2545 18.2099 18.89 18.6376 18.4622L21.5251 19.658L22.6626 17.6747L20.1543 15.7788C20.2515 15.5066 20.3196 15.2198 20.3585 14.9184C20.3974 14.617 20.4168 14.3108 20.4168 13.9997C20.4168 13.6886 20.3974 13.3823 20.3585 13.0809C20.3196 12.7795 20.2515 12.4927 20.1543 12.2205L22.6626 10.3247L21.5251 8.34134L18.6376 9.56634C18.2099 9.11912 17.7383 8.74481 17.2231 8.44343C16.7078 8.14204 16.1488 7.91356 15.546 7.75801L15.1668 4.66634H12.8626L12.4543 7.75801C11.8515 7.91356 11.2925 8.14204 10.7772 8.44343C10.262 8.74481 9.79042 9.1094 9.36265 9.53718L6.47515 8.34134L5.33765 10.3247L7.84598 12.1913C7.74876 12.483 7.6807 12.7747 7.64181 13.0663C7.60292 13.358 7.58348 13.6691 7.58348 13.9997C7.58348 14.3108 7.60292 14.6122 7.64181 14.9038C7.6807 15.1955 7.74876 15.4872 7.84598 15.7788L5.33765 17.6747L6.47515 19.658L9.36265 18.433C9.79042 18.8802 10.262 19.2545 10.7772 19.5559C11.2925 19.8573 11.8515 20.0858 12.4543 20.2413L12.8335 23.333Z" fill="white"/>
</g>
</svg>
