<svg width="28" height="28" viewBox="0 0 28 28" fill="none" xmlns="http://www.w3.org/2000/svg">
<g clip-path="url(#clip0_160_1571)">
<path d="M22.6337 8.56366L19.437 5.36699C19.0198 4.9751 18.4731 4.75024 17.9009 4.73518C17.3287 4.72013 16.7709 4.91592 16.3337 5.28532L5.83368 15.7853C5.45657 16.1656 5.22177 16.6641 5.16868 17.197L4.66701 22.062C4.6513 22.2329 4.67347 22.4051 4.73195 22.5664C4.79043 22.7278 4.88378 22.8742 5.00535 22.9953C5.11436 23.1035 5.24365 23.189 5.38579 23.2471C5.52793 23.3051 5.68014 23.3345 5.83368 23.3337H5.93868L10.8037 22.8903C11.3366 22.8372 11.8351 22.6024 12.2153 22.2253L22.7153 11.7253C23.1229 11.2948 23.3431 10.7202 23.3278 10.1276C23.3125 9.53498 23.0629 8.97258 22.6337 8.56366ZM10.5937 20.557L7.09368 20.8837L7.40868 17.3837L14.0003 10.8737L17.1503 14.0237L10.5937 20.557ZM18.667 12.4603L15.5403 9.33366L17.8153 7.00032L21.0003 10.1853L18.667 12.4603Z" fill="#FDFDFD"/>
</g>
<defs>
<clipPath id="clip0_160_1571">
<rect width="28" height="28" fill="white"/>
</clipPath>
</defs>
</svg>
