<svg width="28" height="28" viewBox="0 0 28 28" fill="none" xmlns="http://www.w3.org/2000/svg">
<g clip-path="url(#clip0_160_1581)">
<path d="M13.9993 16.3327C15.288 16.3327 16.3327 15.288 16.3327 13.9993C16.3327 12.7107 15.288 11.666 13.9993 11.666C12.7107 11.666 11.666 12.7107 11.666 13.9993C11.666 15.288 12.7107 16.3327 13.9993 16.3327Z" fill="#FDFDFD"/>
<path d="M22.1673 16.3327C23.456 16.3327 24.5007 15.288 24.5007 13.9993C24.5007 12.7107 23.456 11.666 22.1673 11.666C20.8787 11.666 19.834 12.7107 19.834 13.9993C19.834 15.288 20.8787 16.3327 22.1673 16.3327Z" fill="#FDFDFD"/>
<path d="M5.83333 16.3327C7.122 16.3327 8.16667 15.288 8.16667 13.9993C8.16667 12.7107 7.122 11.666 5.83333 11.666C4.54467 11.666 3.5 12.7107 3.5 13.9993C3.5 15.288 4.54467 16.3327 5.83333 16.3327Z" fill="#FDFDFD"/>
</g>
<defs>
<clipPath id="clip0_160_1581">
<rect width="28" height="28" fill="white"/>
</clipPath>
</defs>
</svg>
