<svg width="28" height="28" viewBox="0 0 28 28" fill="none" xmlns="http://www.w3.org/2000/svg">
<path d="M14.0007 2.33398C14.4426 2.33398 14.8465 2.58365 15.0441 2.97891L25.5441 23.9789C25.7455 24.3814 25.6972 24.8638 25.4202 25.2186C25.1433 25.5734 24.687 25.7372 24.2476 25.6396L14.0007 23.3625L3.75375 25.6396C3.31439 25.7372 2.85806 25.5734 2.58108 25.2186C2.30411 24.8638 2.25589 24.3814 2.45716 23.9789L12.9572 2.97891C13.1548 2.58365 13.5587 2.33398 14.0007 2.33398ZM15.1673 21.2314L22.361 22.83L15.1673 8.44273V21.2314ZM12.834 8.44273L5.64034 22.83L12.834 21.2314V8.44273Z" fill="#FDFDFD"/>
</svg>
